# xmcd CD database file generated by OrangeCD 5.2
#
# Track frame offsets:
#	182
#	16915
#	41647
#	73380
#
# Disc length: 1198 seconds
#
# Revision: 0
# Processed by: cddbd v1.5.2PL0 Copyright (c) Steve Scherf et al.
# Submitted via: OrangeCD 5.2
#
DISCID=3204ac04
DTITLE=Clock - Blame It On The Boogie [CD Maxi)
DYEAR=1998
DGENRE=Pop
TTITLE0=Blame It On The Boogie [The Radio Mix]
TTITLE1=Blame It On The Boogie [The Boogie Down Mix]
TTITLE2=Blame It On The Boogie [The Boogie Booty Mix]
TTITLE3=Hey You [Time Ladies Please Mix]
EXTD=
EXTT0=
EXTT1=
EXTT2=
EXTT3=
PLAYORDER=
